SplineFontDB: 3.2
FontName: BogFace
FullName: BogFace
FamilyName: BogFace
Weight: Regular
Copyright: Copyright (c) 2023, alifeee
UComments: "2023-12-3: Created with FontForge (http://fontforge.org)"
Version: 001.000
ItalicAngle: 0
UnderlinePosition: -78
UnderlineWidth: 38
Ascent: 820
Descent: 204
InvalidEm: 0
LayerCount: 2
Layer: 0 0 "Back" 1
Layer: 1 0 "Fore" 0
XUID: [1021 879 838727349 2897]
StyleMap: 0x0000
FSType: 0
OS2Version: 0
OS2_WeightWidthSlopeOnly: 0
OS2_UseTypoMetrics: 1
CreationTime: 1701627778
ModificationTime: 1703032294
PfmFamily: 17
TTFWeight: 400
TTFWidth: 5
LineGap: 92
VLineGap: 0
OS2TypoAscent: 0
OS2TypoAOffset: 1
OS2TypoDescent: 0
OS2TypoDOffset: 1
OS2TypoLinegap: 78
OS2WinAscent: 0
OS2WinAOffset: 1
OS2WinDescent: 0
OS2WinDOffset: 1
HheadAscent: 0
HheadAOffset: 1
HheadDescent: 0
HheadDOffset: 1
OS2Vendor: 'PfEd'
Lookup: 258 0 0 "kerning lookup" { "To" [183,18,2] "kerning lookup-1" [182,18,0] "kerning lookup-2" [182,18,0] } ['kern' ('DFLT' <'dflt' > 'latn' <'dflt' > ) ]
MarkAttachClasses: 1
DEI: 91125
LangName: 1033
Encoding: ISO8859-1
UnicodeInterp: none
NameList: AGL For New Fonts
DisplaySize: -48
AntiAlias: 1
FitToEm: 0
WidthSeparation: 183
WinInfo: 22 22 6
BeginPrivate: 0
EndPrivate
Grid
48.83203125 6.58984375 m 0
 43.1975638032 6.58984375 5.51888555116 29.0328228712 27.74609375 77.57421875 c 0
 34.8935512501 93.1857152231 38.1305408424 100.255956858 63.029296875 104.444335938 c 0
 82.3016851519 107.687390374 71.4950875686 113.327690434 82.7939453125 118.0078125 c 0
 120.458257773 133.620142905 128.800646123 19.6953804202 85.4384765625 7.3056640625 c 0
 75.0550756659 4.33933690747 78.8399814149 3.2352936434 70.8935546875 1.0224609375 c 0
 60.5141812049 -1.86905534669 55.2545343579 6.58984375 48.83203125 6.58984375 c 0
-2.5205078125 429.256835938 m 25
 750.989257812 429.256835938 l 1049
EndSplineSet

StartChar: A
Encoding: 65 65 0
Width: 594
VWidth: 863
Flags: W
HStem: 185 151<263 370>
LayerCount: 2
Fore
SplineSet
250 326 m 1049
250 328 m 25
 375 336 l 25
 314 512 l 25
 250 328 l 25
219 683 m 1
 420 675 l 1
 596 6 l 1
 431 6 l 1
 370 185 l 1
 222 182 l 1
 176 6 l 1
 1 6 l 1
 219 683 l 1
EndSplineSet
Validated: 1
EndChar

StartChar: B
Encoding: 66 66 1
Width: 475
VWidth: 863
Flags: W
HStem: 11 126<151 261.593> 595 90<150 237.958>
VStem: 23 126<450 595> 39 112<137 287.442> 250 125<465.934 581.689> 291 172<162.924 269.346>
LayerCount: 2
Fore
SplineSet
151 137 m 17xd4
 234 140 294 149 291 216 c 0
 288 279 247 294 151 286 c 9
 151 137 l 17xd4
149 450 m 17xe8
 214 450 250 459 250 520 c 0
 249 608 195 595 150 595 c 9
 149 450 l 17xe8
23 683 m 1
 239 685 l 2
 301 686 374 616 375 540 c 0xe8
 376 459 344 437 321 406 c 1
 419 361 464 362 463 238 c 0
 462 106 322 14 173 11 c 2
 39 8 l 25xd4
 23 683 l 1
EndSplineSet
Validated: 33
EndChar

StartChar: C
Encoding: 67 67 2
Width: 514
VWidth: 863
Flags: W
HStem: -1 166<217.384 322.367> 553 142<238.5 350.184>
VStem: 12 141<243.617 447.125>
LayerCount: 2
Back
Fore
SplineSet
394 262 m 17
 355 217 338 165 268 165 c 0
 207 165 154 249 153 349 c 0
 152 425 206 554 303 553 c 0
 353 552 378 537 401 512 c 9
 475 587 l 17
 383 657 336 694 265 695 c 0
 220 696 128 674 85 608 c 0
 32 526 12 369 12 284 c 0
 12 186 91 -1 246 -1 c 0
 340 -1 445 114 511 192 c 1
 394 262 l 17
EndSplineSet
Validated: 41
EndChar

StartChar: D
Encoding: 68 68 3
Width: 417
VWidth: 863
Flags: W
VStem: 14 140<189 384.328> 14 128<320.672 516> 283 122<289.795 477.283>
LayerCount: 2
Back
Fore
SplineSet
142 516 m 25x60
 219 516 l 18
 251 516 282 449 283 397 c 0
 286 287 210 189 181 189 c 10
 154 189 l 1xa0
 142 516 l 25x60
14 5 m 25x60
 173 6 l 2
 362 7 405 164 405 296 c 10
 405 418 l 18
 405 611 317 690 197 690 c 10
 14 690 l 1
 14 5 l 25x60
EndSplineSet
Validated: 41
EndChar

StartChar: E
Encoding: 69 69 4
Width: 480
VWidth: 863
Flags: W
HStem: 10 195<203 364.97>
LayerCount: 2
Back
Fore
SplineSet
1046 819 m 1053
203 247 m 9
 203 205 l 1
 266 195 329 197 383 205 c 1
 365 24 l 26
 364 7 348 -5 330 -4 c 0
 302 -3 292 10 264 10 c 2
 8 8 l 25
 41 694 l 17
 188 680 333 677 473 694 c 1
 452 634 449 575 441 517 c 9
 215 498 l 17
 214 459 214 418 204 383 c 1
 332 383 l 17
 311 338 310 253 310 253 c 2
 309 249 306 234 296 234 c 0
 284 234 284 250 274 249 c 2
 271 252 221 252 203 247 c 9
EndSplineSet
Validated: 33
EndChar

StartChar: F
Encoding: 70 70 5
Width: 491
VWidth: 863
Flags: W
HStem: 265 147<219.422 298.818> 487 205<235.747 477>
VStem: 14 183<15.3438 266>
LayerCount: 2
Back
Fore
SplineSet
25 689 m 29
 477 692 l 29
 480 516 l 22
 481 489 422 486 383 487 c 4
 325 488 292 494 233 498 c 29
 219 412 l 29
 255 413 306 433 312 416 c 4
 324 381 313 328 304 296 c 4
 296 275 271 265 239 265 c 4
 225 265 216 265 202 266 c 29
 197 31 l 30
 197 4 161 4 134 1 c 28
 107 -2 94 12 66 15 c 28
 45 16 35 14 14 13 c 29
 25 689 l 29
EndSplineSet
Validated: 33
EndChar

StartChar: G
Encoding: 71 71 6
Width: 540
VWidth: 863
Flags: W
HStem: 9 150<218.686 320.561> 538 157<248.986 393.576>
VStem: 8 150<237.083 435.123>
LayerCount: 2
Back
Fore
SplineSet
420 507 m 13
 517 611 l 5
 438 658 364 698 257 695 c 4
 36 691 9 406 8 354 c 4
 5 168 86 8 255 9 c 4
 443 10 525 131 516 280 c 30
 515 375 l 5
 270 379 l 5
 248 235 l 29
 360 234 l 5
 354 203 309 158 269 159 c 4
 198 162 155 261 158 344 c 4
 159 422 209 541 332 538 c 4
 397 537 399 535 420 507 c 13
EndSplineSet
Validated: 41
EndChar

StartChar: H
Encoding: 72 72 7
Width: 493
VWidth: 863
Flags: W
HStem: 243 154<206.832 334>
VStem: 8 199<408.793 678.254> 26 177<5 243> 336 141<5 236.743> 345 121<400.499 688>
LayerCount: 2
Back
Fore
SplineSet
212 397 m 9xc0
 339 396 l 17
 331 492 318 586 345 688 c 1
 388 680 427 685 466 688 c 1xc8
 488 460 465 226 477 5 c 1
 336 5 l 1
 334 239 l 1
 199 243 l 25
 203 4 l 1
 26 5 l 25xb0
 8 676 l 1
 75 701 136 695 207 692 c 1
 201 590 187 482 212 397 c 9xc0
EndSplineSet
Validated: 33
EndChar

StartChar: I
Encoding: 73 73 8
Width: 409
VWidth: 863
Flags: W
HStem: 8 155<269.975 388> 560 152<26.1755 142> 565 125<288.375 397.61>
VStem: 142 146<458.637 558>
LayerCount: 2
Back
Fore
SplineSet
142 558 m 25xd0
 113 156 l 25
 43 176 l 18
 26 180 8 172 8 159 c 10
 8 36 l 17
 139 9 261 5 388 8 c 9
 393 152 l 18
 393 155 391 162 381 163 c 10
 265 169 l 17
 270 303 264 436 288 565 c 9
 327 566 381 556 391 569 c 0
 405 587 410 684 389 690 c 0xb0
 384 691 362 694 345 695 c 26
 43 712 l 18
 33 713 26 693 25 684 c 10
 10 570 l 18
 9 560 17 560 25 560 c 10
 142 558 l 25xd0
EndSplineSet
Validated: 41
EndChar

StartChar: J
Encoding: 74 74 9
Width: 528
VWidth: 863
Flags: W
LayerCount: 2
Back
Fore
SplineSet
176 239 m 1
 128 231 76 230 32 213 c 1
 45 73 124 7 239 4 c 0
 310 1 390 84 387 129 c 2
 387 129 390 428 366 566 c 1
 423 565 472 572 515 582 c 9
 517 703 l 17
 335 685 35 685 35 685 c 2
 26 685 7 657 8 644 c 2
 13 565 l 1
 83 578 152 571 222 565 c 1
 234 251 l 18
 235 204 262 133 226 134 c 0
 181 135 189 194 176 239 c 1
EndSplineSet
Validated: 41
EndChar

StartChar: K
Encoding: 75 75 10
Width: 593
VWidth: 863
Flags: W
HStem: 8 21G<30.6137 217>
VStem: 18 182<538.952 681>
LayerCount: 2
Back
Fore
SplineSet
18 681 m 25
 200 685 l 25
 208 522 l 25
 325 690 l 25
 468 690 l 25
 286 359 l 1
 364 289 583 47 583 46 c 2
 583 19 l 1
 405 14 l 1
 369 95 296 175 202 231 c 9
 217 8 l 17
 154 16 91 17 31 8 c 9
 18 681 l 25
EndSplineSet
Validated: 33
EndChar

StartChar: L
Encoding: 76 76 11
Width: 519
VWidth: 863
Flags: W
HStem: 2 189<172.106 487.652>
VStem: 14 146<365.914 679>
LayerCount: 2
Back
Fore
SplineSet
14 681 m 9
 160 679 l 17
 159 516 135 354 167 189 c 1
 276 186 381 187 486 191 c 1
 504 124 510 61 502 2 c 1
 349 16 182 30 24 8 c 1
 32 230 11 457 14 681 c 9
EndSplineSet
Validated: 33
EndChar

StartChar: M
Encoding: 77 77 12
Width: 1022
VWidth: 863
Flags: W
LayerCount: 2
Back
Fore
SplineSet
215 15 m 1
 286 160 313 320 391 474 c 1
 445 412 470 337 504 262 c 9
 648 269 l 17
 648 349 688 403 733 456 c 1
 754 305 774 153 808 4 c 9
 1011 11 l 17
 972 232 915 454 859 676 c 9
 644 688 l 17
 619 627 587 572 555 516 c 1
 516 559 510 625 489 681 c 1
 413 691 339 695 265 696 c 1
 158 454 129 232 13 15 c 1
 73 -10 137 16 215 15 c 1
EndSplineSet
Validated: 41
EndChar

StartChar: N
Encoding: 78 78 13
Width: 556
VWidth: 863
Flags: W
VStem: 14 157<12.1633 320.802> 387 157<488.203 666.409>
LayerCount: 2
Back
Fore
SplineSet
184 326 m 1
 229 229 269 94 345 -7 c 9
 524 6 l 17
 542 225 514 416 544 666 c 1
 492 670 436 686 387 676 c 1
 359 532 364 374 343 225 c 1
 299 363 250 532 218 683 c 1
 151 686 84 684 13 696 c 1
 43 494 8 375 14 14 c 1
 74 -7 114 18 171 0 c 1
 167 111 167 215 184 326 c 1
EndSplineSet
Validated: 41
EndChar

StartChar: O
Encoding: 79 79 14
Width: 537
VWidth: 863
Flags: W
VStem: 14 194<208.714 447.241> 335 186<240.807 443.092>
LayerCount: 2
Back
Fore
SplineSet
208 328 m 24
 209 266 208 186 275 185 c 0
 327 184 336 274 335 337 c 24
 334 398 321 475 269 478 c 0
 220 481 207 391 208 328 c 24
14 348 m 0
 13 475 79 685 261 688 c 0
 438 691 520 516 521 350 c 0
 522 268 445 5 260 8 c 0
 38 11 15 242 14 348 c 0
EndSplineSet
Validated: 33
EndChar

StartChar: P
Encoding: 80 80 15
Width: 440
VWidth: 863
Flags: W
VStem: 21 156<452.539 586.398> 36 137<14 268.03>
LayerCount: 2
Back
Fore
SplineSet
177 454 m 17x80
 251 446 281 468 278 517 c 0
 275 564 243 605 176 580 c 9
 177 454 l 17x80
36 14 m 25x40
 21 653 l 2x80
 20 683 136 692 207 692 c 0
 366 692 421 658 424 540 c 0
 427 433 284 331 182 335 c 9
 173 6 l 1
 36 14 l 25x40
EndSplineSet
Validated: 33
EndChar

StartChar: Q
Encoding: 81 81 16
Width: 662
VWidth: 863
Flags: W
HStem: 575 115<220.259 313.658>
VStem: 10 166<260.466 498.066> 383 174<312.606 490.746>
LayerCount: 2
Back
Fore
SplineSet
367 310 m 1
 384 339 384 360 383 394 c 0
 382 460 352 571 260 575 c 0
 193 578 176 441 176 389 c 0
 176 302 212 190 248 189 c 0
 282 188 294 196 304 209 c 1
 276 248 251 267 224 295 c 1
 253 318 247 350 277 371 c 1
 316 361 339 332 367 310 c 1
610 124 m 1049
533 -3 m 1
 507 36 475 71 431 105 c 1
 409 64 305 4 255 4 c 0
 105 3 14 177 10 348 c 0
 5 541 112 690 261 690 c 0
 500 690 552 587 557 375 c 0
 558 299 554 245 511 193 c 1
 568 172 609 130 654 90 c 1
 604 66 572 29 533 -3 c 1
EndSplineSet
Validated: 33
EndChar

StartChar: R
Encoding: 82 82 17
Width: 475
VWidth: 863
Flags: W
HStem: 588 97<151 258.069>
VStem: 14 154<16.5775 181> 22 128<447 588> 277 172<484.254 568.799>
LayerCount: 2
Back
Fore
SplineSet
150 447 m 1xb0
 195 451 l 18
 213 452 277 488 277 522 c 0
 277 556 243 588 219 588 c 10
 151 588 l 25
 150 447 l 1xb0
14 13 m 9xd0
 22 685 l 25xb0
 305 685 l 2
 341 685 449 659 449 504 c 0
 449 394 345 306 239 312 c 1
 305 205 362 208 469 18 c 1
 409 -7 340 19 275 22 c 1
 236 74 202 138 166 181 c 1
 174 102 167 68 168 18 c 1
 121 8 73 -5 14 13 c 9xd0
EndSplineSet
Validated: 33
EndChar

StartChar: S
Encoding: 83 83 18
Width: 484
VWidth: 863
Flags: W
HStem: 4 130<145.978 290.275> 284 117<191.557 310.323> 559 129<195.375 321.019>
VStem: 66 110<417.369 539.562>
LayerCount: 2
Back
Fore
SplineSet
8 87 m 1
 102 181 l 17
 151 156 167 135 224 134 c 0
 276 133 326 167 318 227 c 0
 310 308 272 285 202 284 c 0
 127 283 67 359 66 451 c 0
 65 585 158 691 281 688 c 0
 322 687 352 684 380 653 c 26
 444 580 l 25
 352 502 l 25
 326 531 l 26
 308 554 294 559 255 559 c 0
 198 559 175 527 176 482 c 0
 177 433 189 402 242 401 c 0
 291 400 294 411 328 412 c 0
 399 413 478 327 477 238 c 0
 476 111 381 7 230 4 c 0
 163 3 144 13 123 23 c 10
 8 87 l 1
EndSplineSet
Validated: 33
EndChar

StartChar: T
Encoding: 84 84 19
Width: 581
VWidth: 863
Flags: W
HStem: 517 141<14 215.602>
VStem: 211 164<195.309 515.137>
LayerCount: 2
Back
Fore
SplineSet
211 8 m 17
 183 185 212 351 217 522 c 9
 14 517 l 25
 8 658 l 17
 69 685 498 686 565 681 c 1
 551 629 570 576 573 522 c 1
 499 525 434 521 374 512 c 9
 375 15 l 25
 211 8 l 17
EndSplineSet
Validated: 33
EndChar

StartChar: U
Encoding: 85 85 20
Width: 519
VWidth: 863
Flags: W
VStem: 8 136<544.5 681> 13 155<330.269 642.386> 360 142<374.162 680>
LayerCount: 2
Back
Fore
SplineSet
8 684 m 25xa0
 13 370 l 18
 14 263 105 13 233 10 c 10
 325 8 l 18
 421 7 501 247 502 328 c 10
 507 683 l 25
 360 680 l 1
 363 434 316 201 286 202 c 0
 205 203 165 369 168 540 c 1x60
 147 588 145 636 144 681 c 1
 8 684 l 25xa0
EndSplineSet
Validated: 41
EndChar

StartChar: V
Encoding: 86 86 21
Width: 678
VWidth: 863
Flags: W
LayerCount: 2
Back
Fore
SplineSet
1 664 m 5
 80 409 183 218 279 10 c 9
 432 6 l 17
 534 234 521 311 663 689 c 1
 611 675 543 678 480 675 c 1
 467 524 410 387 360 249 c 1
 299 387 218 517 173 663 c 5
 121 666 77 672 1 664 c 5
EndSplineSet
Validated: 41
EndChar

StartChar: W
Encoding: 87 87 22
Width: 1066
VWidth: 863
Flags: W
LayerCount: 2
Back
Fore
SplineSet
10 659 m 1
 84 425 194 226 286 8 c 9
 451 19 l 17
 465 90 495 157 529 220 c 1
 553 146 574 65 606 11 c 9
 758 13 l 17
 878 229 968 447 1053 666 c 9
 838 681 l 17
 778 547 733 397 657 277 c 1
 594 355 565 425 535 503 c 1
 476 433 430 362 385 291 c 1
 329 420 257 543 186 670 c 1
 126 667 63 684 10 659 c 1
EndSplineSet
Validated: 41
EndChar

StartChar: X
Encoding: 88 88 23
Width: 723
VWidth: 863
Flags: W
LayerCount: 2
Back
Fore
SplineSet
13 26 m 1
 186 354 l 17
 150 459 68 551 23 664 c 1
 66 677 128 671 202 657 c 1
 245 572 307 514 367 452 c 1
 412 534 463 617 529 688 c 1
 589 670 646 678 706 670 c 1
 657 568 589 465 515 368 c 1
 544 245 596 126 649 13 c 1
 593 16 538 9 482 22 c 1
 441 93 409 168 353 224 c 1
 309 137 235 85 190 2 c 1
 120 20 41 5 13 26 c 1
EndSplineSet
Validated: 33
EndChar

StartChar: Y
Encoding: 89 89 24
Width: 642
VWidth: 863
Flags: W
HStem: 429 21G<302 342>
LayerCount: 2
Back
Fore
SplineSet
8 680 m 1
 84 549 163 420 272 297 c 1
 286 200 288 110 291 14 c 1
 347 13 414 -7 454 14 c 1
 440 107 421 202 438 291 c 1
 463 389 582 573 636 662 c 1
 560 666 481 654 405 672 c 1
 384 589 358 507 326 429 c 1
 278 510 217 592 188 671 c 1
 126 672 65 690 8 680 c 1
EndSplineSet
Validated: 41
EndChar

StartChar: Z
Encoding: 90 90 25
Width: 541
VWidth: 863
Flags: W
HStem: 8 21G<34 111> 19 167<276.755 503> 499 190<13 127.878>
LayerCount: 2
Back
Fore
SplineSet
32 8 m 1xa0
 36 53 34 106 30 155 c 1
 153 244 236 375 328 494 c 1
 13 499 l 1
 10 689 l 1
 179 676 342 676 502 685 c 1
 538 614 527 547 530 480 c 1
 474 383 360 288 275 186 c 9
 503 189 l 1
 504 135 514 73 517 19 c 1x60
 345 24 190 16 32 8 c 1xa0
EndSplineSet
Validated: 33
EndChar

StartChar: m
Encoding: 109 109 26
Width: 500
VWidth: 860
Flags: W
VStem: 19 104<11.0484 256.537> 271 67<231.767 304.567> 410 72<11.6495 342.991>
LayerCount: 2
Back
Fore
SplineSet
109 367 m 0
 112 367 163 411 170 411 c 0
 177 411 192 426 228 424 c 0
 247 423 268 416 277 407 c 0
 293 393 294 350 297 350 c 0
 303 350 307 385 351 410 c 0
 365 418 403 439 439 421 c 0
 461 410 465 397 468 343 c 0
 470 313 475 302 481 221 c 0
 483 190 482 16 482 14 c 0
 482 11 481 10 474 10 c 0
 465 10 416 7 412 3 c 0
 408 -1 399 5 401 11 c 0
 404 23 412 155 410 168 c 0
 408 184 411 323 401 338 c 0
 379 371 338 265 338 241 c 0
 338 234 330 232 300 231 c 2
 271 230 l 1
 254 263 252 320 235 331 c 0
 220 341 202 339 181 324 c 0
 160 310 150 292 146 259 c 0
 145 255 129 163 129 162 c 0
 129 161 120 46 127 26 c 0
 132 13 123 20 123 12 c 0
 123 10 122 8 121 8 c 0
 120 8 119 7 119 5 c 0
 119 -3 80 12 66 5 c 0
 59 1 33 -4 29 -2 c 0
 20 1 24 220 19 284 c 0
 17 313 10 412 19 421 c 0
 22 424 79 425 87 430 c 0
 99 436 101 435 105 414 c 0
 110 387 107 367 109 367 c 0
EndSplineSet
Validated: 33
EndChar

StartChar: w
Encoding: 119 119 27
Width: 655
VWidth: 860
InSpiro: 1
Flags: W
VStem: 277.398 128.601<183.336 260.426>
LayerCount: 2
Back
Fore
SplineSet
320.91796875 86.1416015625 m 0
 320.91796875 84.4580078125 301.334960938 56.89453125 301.334960938 53.501953125 c 0
 301.334960938 48.65234375 267.171875 16.8359375 258.684570312 13.7822265625 c 0
 257.501953125 13.3564453125 181.130859375 -12.4072265625 133.348632812 4.46875 c 0
 107.678710938 13.5361328125 91.8798828125 32.830078125 61.1259765625 92.6689453125 c 0
 48.4755859375 117.283203125 31.5126953125 150.288085938 31.5126953125 208.8671875 c 0
 31.5126953125 222.8203125 12.5712890625 379.43359375 11.94921875 391.432617188 c 0
 9.5830078125 437.145507812 9.5830078125 437.145507812 8.9912109375 438.650390625 c 0
 7.033203125 443.63671875 43.7822265625 444.392578125 53.7080078125 439.3359375 c 0
 59.58203125 436.34375 76.0068359375 437.2265625 80.689453125 440.787109375 c 0
 90.8818359375 448.536132812 102.345703125 441.479492188 104.3125 426.248046875 c 0
 109.50390625 386.051757812 108.861328125 292.405273438 111.9921875 276.540039062 c 0
 127.15625 199.66015625 127.15625 199.66015625 128.34375 197.116210938 c 0
 130.036132812 193.489257812 132.958007812 186.237304688 134.916992188 180.796875 c 0
 151.321289062 135.256835938 198.151367188 137.40625 207.549804688 140.520507812 c 0
 220.170898438 144.700195312 239.556640625 158.516601562 246.662109375 168.393554688 c 0
 250.348632812 173.51953125 275.18359375 217.40234375 268.368164062 225.83984375 c 0
 266.787109375 227.797851562 266.8203125 228.668945312 268.477539062 228.668945312 c 0
 271.59375 228.668945312 277.3984375 240.418945312 277.3984375 246.729492188 c 0
 277.3984375 261.196289062 284.331054688 261.083984375 317.654296875 260.545898438 c 0
 350.080078125 260.024414062 397.727539062 264.403320312 398.4921875 264.13671875 c 0
 403.473632812 262.40625 405.999023438 224.821289062 405.999023438 222.140625 c 0
 405.999023438 216.165039062 414.861328125 179.055664062 418.575195312 169.481445312 c 0
 424.282226562 154.76953125 444.927734375 124.2734375 462.708984375 148.157226562 c 0
 491.623046875 186.979492188 555.24609375 426.482421875 542.215820312 439.521484375 c 0
 537.08203125 444.655273438 642.829101562 442.655273438 646.880859375 438.759765625 c 0
 649.170898438 436.557617188 649.233398438 432.557617188 647.20703125 417.76171875 c 0
 638.833007812 356.583007812 638.833007812 356.583007812 635.8515625 347.041992188 c 0
 617.313476562 287.724609375 611.87890625 237.149414062 603.9453125 218.876953125 c 0
 600.831054688 211.705078125 599.8671875 200.568359375 588.455078125 173.181640625 c 0
 583.921875 162.30078125 577.711914062 146.828125 574.481445312 138.365234375 c 0
 558.951171875 97.6748046875 557.70703125 95.623046875 526.720703125 59.5947265625 c 0
 506.8828125 36.529296875 491.39453125 21.9501953125 486.728515625 21.9501953125 c 0
 483.35546875 21.9501953125 482.272460938 16.228515625 472.258789062 14.2255859375 c 0
 459.263671875 11.626953125 420.14453125 36.80859375 419.1640625 38.5966796875 c 0
 418.66796875 39.5 379.834960938 82.794921875 353.55078125 118.12890625 c 0
 349.340820312 123.786132812 344.678710938 128.388671875 343.11328125 128.4296875 c 0
 340.97265625 128.485351562 320.91796875 90.275390625 320.91796875 86.1416015625 c 0
  Spiro
    320.918 86.142 o
    315.85 77.6985 o
    306.403 63.0837 o
    301.335 53.502 o
    292.179 41.744 o
    273.495 24.3432 o
    258.685 13.7817 o
    236.323 7.43781 o
    186.762 -0.715415 o
    133.348 4.46923 o
    110.071 18.049 o
    87.791 45.2586 o
    61.1255 92.6691 o
    47.8391 120.684 o
    36.3701 158.219 o
    31.5127 208.867 o
    26.5874 259.657 o
    17.2889 341.945 o
    11.9491 391.433 o
    10.2631 423.636 o
    9.49455 435.904 o
    8.99096 438.651 o
    17.4919 442.166 o
    37.2888 442.512 o
    53.7079 439.336 o
    62.263 437.592 o
    72.9285 438.165 o
    80.6899 440.787 o
    90.8974 443.847 o
    99.5859 438.5 o
    104.313 426.248 o
    107.912 373.157 o
    109.765 313.419 o
    111.991 276.54 o
    122.7 222.379 o
    126.949 201.744 o
    128.344 197.116 o
    130.362 192.488 o
    132.721 186.633 o
    134.917 180.797 o
    158.921 149.442 o
    188.214 139.456 o
    207.549 140.52 o
    221.705 147.401 o
    236.181 157.718 o
    246.662 168.394 o
    255.43 183.667 o
    266.597 208.359 o
    268.369 225.84 o
    267.326 227.442 o
    267.361 228.371 o
    268.478 228.669 o
    272.171 231.943 o
    275.781 239.251 o
    277.399 246.729 o
    280.423 256.854 o
    292.426 260.419 o
    317.655 260.546 o
    352.818 261.302 o
    384.425 263.21 o
    398.492 264.137 o
    402.65 253.093 o
    405.161 233.817 o
    405.999 222.14 o
    408.43 207.98 o
    413.67 186.04 o
    418.575 169.482 o
    428.588 152.124 o
    444.65 139.797 o
    462.709 148.157 o
    499.028 237.928 o
    533.845 366.931 o
    542.216 439.522 o
    566.124 442.47 o
    616.852 441.827 o
    646.881 438.759 o
    648.432 435.629 o
    648.531 429.284 o
    647.207 417.761 o
    641.208 374.385 o
    638.258 356.011 o
    635.852 347.042 o
    621.115 291.562 o
    611.616 247.007 o
    603.945 218.877 o
    601.085 209.94 o
    596.845 195.589 o
    588.456 173.181 o
    583.541 161.212 o
    578.528 148.723 o
    574.482 138.365 o
    562.094 107.888 o
    549.408 86.9652 o
    526.721 59.5948 o
    508.589 39.6003 o
    494.751 26.575 o
    486.728 21.95 o
    483.706 20.3952 o
    479.706 17.1151 o
    472.258 14.2256 o
    452.959 18.9815 o
    430.458 30.9177 o
    419.164 38.5964 o
    407.794 51.7422 o
    382.104 82.0413 o
    353.55 118.129 o
    349.326 123.3 o
    345.576 127.001 o
    343.113 128.43 o
    336.417 118.427 o
    326.187 98.9365 o
    0 0 z
  EndSpiro
EndSplineSet
Validated: 33
EndChar

StartChar: o
Encoding: 111 111 29
Width: 343
VWidth: 718
Flags: W
HStem: 2 128<145.922 207.948>
VStem: 8 123<144.147 295.292>
LayerCount: 2
Back
Fore
SplineSet
218 211 m 0
 221 251 208 313 172 306 c 0
 133 298 129 251 131 212 c 0
 133 165 145 129 184 130 c 0
 219 131 216 176 218 211 c 0
8 194 m 0
 10 312 79 427 178 424 c 0
 327 420 319 240 325 162 c 0
 325 156 326 151 327 146 c 0
 342 52 249 0 164 2 c 0
 65 5 7 95 8 194 c 0
EndSplineSet
Validated: 33
EndChar

StartChar: n
Encoding: 110 110 30
Width: 363
VWidth: 860
Flags: W
VStem: 23 92<24.2552 240.578> 247 97<22.625 282.523>
LayerCount: 2
Back
Fore
SplineSet
207 423 m 0
 233 434 273 429 289 421 c 0
 305 413 324 394 329 383 c 0
 334 372 337 346 340 330 c 0
 345 307 346 259 344 193 c 0
 344 191 340 28 339 26 c 0
 337 22 310 23 293 20 c 0
 253 12 245 13 247 22 c 0
 248 25 247 38 245 51 c 0
 242 75 241 81 247 133 c 0
 250 162 250 219 247 233 c 0
 246 236 245 243 245 250 c 0
 244 273 228 287 202 288 c 0
 191 288 189 286 172 276 c 0
 147 260 140 251 125 211 c 0
 117 189 115 155 119 127 c 0
 124 95 121 20 115 5 c 0
 110 -8 107 7 86 7 c 0
 55 7 32 -4 25 3 c 0
 16 12 23 281 23 284 c 0
 25 332 24 333 19 333 c 0
 12 333 12 335 12 354 c 0
 12 375 17 406 22 409 c 0
 28 413 82 409 93 415 c 0
 97 417 105 417 117 417 c 2
 135 416 l 1
 135 400 l 2
 136 388 137 383 139 383 c 0
 141 383 143 384 143 385 c 0
 145 391 180 412 207 423 c 0
EndSplineSet
Validated: 33
EndChar

StartChar: l
Encoding: 108 108 31
Width: 349
VWidth: 860
Flags: W
HStem: 655 20G<23.5 113>
VStem: 8 101<337.512 674.814>
LayerCount: 2
Back
Fore
SplineSet
109 416 m 0
 105 357 107 239 112 213 c 0
 117 187 129 156 138 141 c 0
 166 98 232 117 249 172 c 0
 254 189 258 190 274 175 c 0
 287 163 310 146 329 133 c 0
 342 124 342 119 329 106 c 0
 312 88 262 26 246 19 c 0
 208 2 207 2 173 2 c 0
 135 2 127 2 93 30 c 0
 44 70 36 115 33 135 c 0
 18 226 7 553 8 601 c 0
 8 616 9 637 9 647 c 0
 9 677 7 675 40 675 c 0
 56 675 76 675 84 675 c 2
 113 675 l 5
 113 675 109 419 109 416 c 0
EndSplineSet
Validated: 33
EndChar

StartChar: y
Encoding: 121 121 32
Width: 512
VWidth: 860
Flags: HW
HStem: -310 98<122.277 324.889> 414 20G<129 133.5>
VStem: 13 118<245.609 429.655> 373 126<242.479 434>
LayerCount: 2
Back
Fore
SplineSet
178 164 m 0
 178 163 206 125 241 126 c 0
 306 127 353 232 362 281 c 0
 372 335 372 337 373 378 c 0
 374 405 374 420 378 434 c 1
 429 436 l 2
 498 438 498 438 499 435 c 0
 501 431 498 406 493 389 c 0
 465 284 500 -84 484 -110 c 4
 483 -111 468 -200 446 -225 c 4
 437 -236 439 -246 433 -249 c 4
 432 -250 389 -288 335 -305 c 4
 307 -313 252 -316 205 -310 c 4
 193 -309 173 -307 159 -307 c 4
 54 -307 6 -214 5 -212 c 4
 3 -207 -2 -197 -6 -191 c 4
 -18 -173 -18 -172 17 -155 c 4
 65 -131 48 -131 61 -131 c 4
 68 -131 70 -132 71 -137 c 4
 76 -158 96 -178 129 -194 c 4
 137 -198 146 -203 150 -206 c 4
 156 -211 158 -211 212 -212 c 4
 264 -213 310 -214 338 -176 c 4
 350 -160 356 -148 364 -69 c 4
 366 -45 367 65 365 67 c 0
 364 68 326 12 248 1 c 0
 200 -6 174 16 173 17 c 0
 172 18 127 36 101 66 c 0
 89 79 72 105 64 120 c 0
 47 154 27 306 21 330 c 0
 14 359 9 415 13 423 c 0
 16 429 34 439 36 435 c 0
 36 434 86 428 129 433 c 2
 138 434 l 1
 129 387 135 361 131 353 c 0
 128 347 137 258 142 246 c 0
 143 244 166 171 175 168 c 0
 177 167 178 165 178 164 c 0
EndSplineSet
EndChar

StartChar: a
Encoding: 97 97 33
Width: 393
VWidth: 860
Flags: W
HStem: 344 78<136.635 252.934>
VStem: 279 99<401 454>
LayerCount: 2
Back
Fore
SplineSet
267 128 m 17
 202 118 129 119 114 266 c 0
 110 307 145 344 186 344 c 0
 225 344 235 334 259 318 c 1
 267 128 l 17
255 24 m 25
 259 -8 l 25
 360 -3 l 1
 380 117 353 88 378 459 c 1
 350 447 317 453 285 454 c 1
 279 401 l 1
 236 410 224 423 170 422 c 0
 62 419 12 333 13 222 c 0
 14 116 49 14 175 6 c 0
 224 3 224 17 255 24 c 25
EndSplineSet
Validated: 41
EndChar

StartChar: b
Encoding: 98 98 34
Width: 389
VWidth: 860
Flags: W
VStem: 286 89<173.82 279.551>
LayerCount: 2
Back
Fore
SplineSet
144 120 m 9
 146 287 l 17
 191 313 287 297 286 239 c 24
 285 167 228 127 144 120 c 9
146 383 m 1
 156 485 152 578 175 688 c 9
 52 691 l 25
 8 3 l 25
 109 -6 l 25
 113 25 l 17
 318 0 380 135 375 291 c 0
 372 372 332 433 262 431 c 0
 213 429 190 421 146 383 c 1
EndSplineSet
Validated: 41
EndChar

StartChar: c
Encoding: 99 99 35
Width: 329
VWidth: 860
Flags: W
LayerCount: 2
Back
Fore
SplineSet
248 133 m 0
 252 133 280 101 285 101 c 0
 290 101 299 86 306 84 c 0
 331 76 314 48 268 28 c 0
 263 26 256 22 254 21 c 0
 211 -7 125 0 93 22 c 0
 74 35 50 52 26 115 c 0
 14 146 10 171 8 219 c 0
 6 264 8 277 21 317 c 0
 51 411 102 423 103 423 c 4
 152 435 239 411 268 385 c 0
 283 372 297 364 297 359 c 0
 297 355 255 307 255 307 c 2
 243 293 l 1
 233 299 l 2
 204 316 159 316 137 293 c 0
 95 251 124 56 228 122 c 0
 238 128 247 133 248 133 c 0
EndSplineSet
Validated: 33
EndChar

StartChar: d
Encoding: 100 100 36
Width: 405
VWidth: 860
Flags: W
VStem: 11 91<141.156 279.655> 275 101<438.728 723.522>
LayerCount: 2
Back
Fore
SplineSet
291 724 m 0
 300 738 332 722 363 724 c 2
 375 725 l 1
 376 710 l 2
 377 703 386 13 366 2 c 0
 359 -1 279 1 275 5 c 0
 270 10 272 51 269 53 c 0
 262 57 209 -5 143 14 c 0
 61 38 22 101 11 187 c 0
 7 217 11 283 17 305 c 0
 36 372 55 391 113 404 c 0
 189 421 247 374 260 376 c 0
 265 377 266 380 266 421 c 0
 267 572 274 571 278 661 c 0
 279 691 284 714 291 724 c 0
202 304 m 0
 105 304 102 238 102 236 c 0
 101 201 98 136 158 118 c 0
 159 118 235 99 270 142 c 5
 271 143 265 187 259 289 c 5
 259 290 234 304 202 304 c 0
EndSplineSet
Validated: 33
EndChar

StartChar: e
Encoding: 101 101 37
Width: 419
VWidth: 860
Flags: W
HStem: 3 100<158.615 341.863> 168 98<156.1 294.092>
LayerCount: 2
Back
Fore
SplineSet
237 423 m 4
 436 416 392 206 368 193 c 0
 345 181 152 168 150 168 c 1
 151 155 l 2
 153 68 281 103 282 103 c 0
 345 125 345 125 358 135 c 0
 378 150 380 149 388 107 c 0
 395 73 408 61 405 48 c 0
 401 27 370 9 326 3 c 0
 308 0 169 1 156 4 c 0
 8 36 11 237 11 240 c 0
 27 339 113 428 237 423 c 4
156 257 m 0
 156 256 294 266 295 266 c 1
 280 433 117 328 156 257 c 0
EndSplineSet
Validated: 33
EndChar

StartChar: f
Encoding: 102 102 38
Width: 394
VWidth: 860
Flags: W
HStem: 295 105<169.252 255.589>
LayerCount: 2
Back
Fore
SplineSet
163 398 m 4
 168 396 260 401 261 400 c 0
 262 399 259 296 253 295 c 0
 203 286 174 291 169 287 c 0
 167 285 138 42 154 17 c 0
 155 15 153 -5 141 6 c 0
 125 20 61 -2 15 7 c 1
 14 20 l 2
 14 20 14 20 11 182 c 0
 9 282 24 308 24 355 c 0
 25 649 161 668 237 681 c 0
 262 685 357 683 383 631 c 1
 383 631 369 607 369 605 c 0
 369 604 329 546 325 553 c 0
 323 557 298 599 250 586 c 0
 241 584 236 581 236 581 c 1
 238 581 204 560 192 531 c 0
 147 425 162 398 163 398 c 4
EndSplineSet
Validated: 33
EndChar

StartChar: g
Encoding: 103 103 39
Width: 416
VWidth: 860
Flags: W
HStem: 304 106<173.163 262.674>
VStem: 14 87<-191.885 -118> 19 109<134.396 250.4>
LayerCount: 2
Back
Fore
SplineSet
267 303 m 1xa0
 218 304 l 26
 163 303 127 217 128 181 c 0
 129 148 162 108 202 112 c 0
 244 116 252 129 283 141 c 25
 267 303 l 1xa0
274 383 m 1
 287 456 l 17
 319 441 353 451 385 449 c 1
 362 278 393 210 390 42 c 0
 387 -182 427 -303 156 -343 c 0
 75 -355 9 -282 12 -188 c 2
 14 -118 l 25
 101 -114 l 1xc0
 115 -182 123 -230 198 -234 c 0
 314 -240 327 -39 296 47 c 9
 256 30 261 5 192 4 c 0
 115 3 14 64 19 216 c 0
 22 323 74 413 178 410 c 0
 233 408 236 398 274 383 c 1
EndSplineSet
Validated: 33
EndChar

StartChar: h
Encoding: 104 104 40
Width: 405
VWidth: 860
Flags: W
LayerCount: 2
Back
Fore
SplineSet
119 687 m 0
 126 690 120 538 120 537 c 0
 119 530 131 366 132 365 c 0
 158 349 111 399 248 415 c 0
 387 431 390 187 392 -2 c 1
 308 0 300 0 297 3 c 0
 295 5 325 335 227 312 c 0
 83 278 151 17 139 6 c 5
 130 0 122 0 28 0 c 1
 17 0 13 661 26 677 c 0
 37 691 102 679 119 687 c 0
EndSplineSet
Validated: 33
EndChar

StartChar: i
Encoding: 105 105 41
Width: 299
VWidth: 860
Flags: W
HStem: 407 20G<23 49> 502 110<37.4032 112.203>
VStem: 23 103<515.913 597.175> 23 92<167.12 424.171>
LayerCount: 2
Back
Fore
SplineSet
82 612 m 0xe0
 109 612 125 589 126 564 c 0
 127 529 96 502 72 502 c 0
 48 502 24 526 23 555 c 0
 22 589 60 612 82 612 c 0xe0
102 426 m 4
 108 428 119 433 115 413 c 0
 114 410 104 107 150 106 c 0
 181 106 204 170 215 170 c 0
 216 170 242 149 279 126 c 0
 292 118 290 111 271 89 c 0
 197 2 176 -1 130 2 c 0
 67 6 17 21 11 313 c 0
 10 386 23 366 23 427 c 1xd0
 75 425 96 423 102 426 c 4
EndSplineSet
Validated: 33
EndChar

StartChar: j
Encoding: 106 106 42
Width: 334
VWidth: 860
Flags: W
VStem: 12 118<-100.975 -40.8387> 217 99<340.165 426> 235 83<-44.781 423.907>
LayerCount: 2
Back
Fore
SplineSet
271 512 m 24x80
 223 509 198 595 270 613 c 0
 335 629 327 515 271 512 c 24x80
241 -167 m 0
 241 -168 208 -199 149 -199 c 0
 118 -199 106 -194 77 -169 c 0
 57 -152 38 -127 31 -110 c 0
 26 -98 12 -34 12 -25 c 0
 12 -18 17 -14 22 -17 c 0
 33 -23 96 -9 97 -9 c 0
 98 -9 111 -59 130 -89 c 0
 142 -108 171 -105 191 -86 c 0
 204 -74 210 -61 217 -26 c 0xc0
 233 52 234 64 235 156 c 0xa0
 235 157 238 263 237 270 c 0
 234 287 231 375 226 396 c 0
 220 421 220 422 221 424 c 4
 227 431 267 423 301 428 c 0
 325 432 325 432 316 388 c 0xc0
 314 379 314 364 315 339 c 0
 317 305 317 240 318 95 c 0xa0
 319 30 319 6 300 -35 c 0
 293 -50 282 -85 282 -91 c 0
 282 -103 241 -167 241 -167 c 0
EndSplineSet
Validated: 33
EndChar

StartChar: k
Encoding: 107 107 43
Width: 391
VWidth: 860
Flags: W
VStem: 16 127<250.094 337.811> 19 10<684.668 690.831> 30 129<8.42681 100.845>
LayerCount: 2
Back
Fore
SplineSet
19 687 m 0x40
 22 693 27 694 29 688 c 0
 32 677 124 684 125 683 c 0
 126 682 127 677 125 670 c 0
 110 605 122 400 124 398 c 0
 125 397 201 434 233 425 c 0
 237 424 245 423 251 422 c 0
 284 418 375 358 338 262 c 0
 333 250 316 227 307 220 c 0
 281 199 210 180 207 177 c 0
 205 175 214 168 239 155 c 0
 250 149 302 120 356 55 c 0
 360 51 366 43 370 39 c 0
 379 29 380 24 372 17 c 0
 359 4 316 17 304 5 c 0
 293 -5 282 11 281 14 c 0
 279 24 243 68 237 68 c 0
 236 68 168 108 163 103 c 0
 161 101 160 68 159 5 c 1
 128 7 l 2
 89 9 75 9 66 5 c 0
 34 -9 30 -2 30 23 c 0x60
 30 46 23 64 20 141 c 0
 19 170 17 199 16 204 c 0x80
 14 214 13 400 13 517 c 0
 13 605 16 680 19 687 c 0x40
228 340 m 0
 223 344 203 348 200 345 c 0
 199 344 146 339 149 326 c 0
 150 323 149 321 147 321 c 0
 144 321 144 316 143 290 c 0x80
 142 254 142 252 149 250 c 0
 162 247 243 262 243 310 c 0
 243 318 234 335 228 340 c 0
EndSplineSet
Validated: 33
EndChar

StartChar: p
Encoding: 112 112 44
Width: 422
VWidth: 860
Flags: W
HStem: 14 125<145.833 292.646>
LayerCount: 2
Back
Fore
SplineSet
166 396 m 0
 224 436 253 433 288 427 c 0
 318 421 334 416 345 405 c 0
 356 395 370 375 370 371 c 0
 370 369 428 264 401 143 c 0
 395 115 361 60 342 47 c 0
 297 16 293 14 263 14 c 0
 252 14 239 14 236 13 c 0
 224 10 153 24 141 41 c 0
 135 50 132 53 130 4 c 0
 121 -232 115 -114 108 -327 c 0
 107 -358 107 -374 91 -364 c 0
 85 -360 45 -355 21 -356 c 0
 10 -356 9 -356 7 -349 c 0
 -2 -317 21 20 22 24 c 0
 27 57 44 403 44 407 c 0
 44 414 51 421 57 419 c 0
 64 417 149 422 151 420 c 0
 153 418 149 387 150 386 c 0
 150 385 158 390 166 396 c 0
246 329 m 0
 217 337 227 326 208 325 c 0
 198 325 155 302 148 293 c 2
 141 284 l 1
 141 231 l 2
 141 202 140 174 140 169 c 0
 139 157 143 155 172 148 c 0
 214 138 236 135 257 139 c 0
 271 142 300 164 307 177 c 0
 318 199 329 242 292 296 c 0
 278 317 268 323 246 329 c 0
EndSplineSet
Validated: 33
EndChar

StartChar: q
Encoding: 113 113 45
Width: 357
VWidth: 860
Flags: W
VStem: 235 97<-274.239 19.7508 119.082 278.767> 256 83<352.955 401.292>
LayerCount: 2
Back
Fore
SplineSet
204 14 m 0x80
 199 14 191 5 183 5 c 0
 180 5 175 4 171 2 c 0
 158 -5 100 -1 61 37 c 0
 52 46 32 82 32 90 c 0
 32 108 10 131 15 220 c 0
 19 292 64 370 156 377 c 0
 197 380 224 352 232 364 c 0
 238 373 240 355 244 354 c 0
 245 354 247 353 249 353 c 0
 254 352 256 353 256 376 c 0
 257 402 257 402 271 401 c 0
 281 400 326 411 333 403 c 0
 339 396 343 210 339 113 c 0x40
 337 60 337 -57 338 -158 c 0
 339 -215 335 -327 332 -338 c 0
 328 -354 290 -335 260 -344 c 0
 241 -350 237 -351 235 -348 c 0
 223 -328 242 -187 235 -10 c 0
 233 30 232 34 223 26 c 0
 221 24 218 23 217 23 c 0
 214 23 209 14 204 14 c 0x80
218 279 m 0
 207 285 171 281 162 272 c 0
 161 271 158 270 156 270 c 0
 141 270 94 218 114 162 c 0
 134 107 192 111 210 118 c 0
 230 126 232 127 233 148 c 0
 235 173 230 196 229 240 c 0
 228 271 227 274 218 279 c 0
EndSplineSet
Validated: 33
EndChar

StartChar: r
Encoding: 114 114 46
Width: 394
VWidth: 860
Flags: W
HStem: 406 20G<56 99 250.5 254.5>
VStem: 9 90<339 430.875> 40 92<2.82082 243.452>
LayerCount: 2
Back
Fore
SplineSet
150 425 m 0xc0
 184 446 250 426 251 426 c 0
 258 424 273 420 283 418 c 0
 337 406 390 362 385 333 c 0
 384 326 380 322 359 308 c 0
 345 299 334 291 332 290 c 0
 327 287 322 291 320 301 c 0
 316 323 257 354 228 347 c 0
 222 346 217 345 216 346 c 0
 214 347 196 340 181 333 c 0
 169 327 154 307 147 286 c 0
 133 247 129 173 132 49 c 0
 133 0 133 -4 122 2 c 0
 116 5 46 -2 40 4 c 0xa0
 37 7 47 85 35 122 c 0
 34 124 18 215 9 339 c 0
 7 368 8 426 11 429 c 0
 12 430 32 431 56 432 c 2
 99 433 l 1
 99 419 l 2
 99 411 100 403 101 402 c 0
 103 399 123 409 150 425 c 0xc0
EndSplineSet
Validated: 33
EndChar

StartChar: s
Encoding: 115 115 47
Width: 271
VWidth: 860
Flags: W
HStem: 333 92<112.488 149>
LayerCount: 2
Back
Fore
SplineSet
66 226 m 0
 56 226 30 271 35 334 c 0
 38 378 84 416 100 422 c 0
 103 423 115 425 127 425 c 2
 149 425 l 1
 178 411 l 2
 194 403 233 386 239 352 c 0
 242 334 224 331 222 332 c 0
 213 334 191 304 187 304 c 0
 185 304 155 333 142 333 c 0
 108 333 101 294 129 279 c 0
 173 256 216 267 243 230 c 0
 260 207 277 159 233 76 c 0
 228 67 197 34 187 28 c 0
 144 1 92 -1 80 5 c 0
 77 6 73 7 71 7 c 0
 68 7 27 32 18 32 c 0
 -15 32 37 66 44 95 c 0
 46 103 53 103 59 96 c 0
 59 96 143 53 166 137 c 0
 174 167 167 196 148 205 c 0
 135 212 96 206 77 219 c 0
 72 223 67 226 66 226 c 0
EndSplineSet
Validated: 33
EndChar

StartChar: t
Encoding: 116 116 48
Width: 367
VWidth: 860
Flags: W
HStem: 336 90<207.097 285.98> 347 74<7.29353 111.936>
VStem: 112 88<424.189 538> 113 95<200.685 335.768> 122 85<107.547 330.914>
LayerCount: 2
Back
Fore
SplineSet
117 538 m 0x60
 121 542 125 542 128 539 c 0
 129 538 176 535 205 538 c 1
 204 511 l 2
 204 479 199 427 200 426 c 0xa0
 201 425 264 421 290 425 c 1
 290 387 l 2
 289 340 286 338 286 338 c 0
 286 333 259 330 241 333 c 0
 233 334 222 336 217 336 c 0
 209 336 208 335 208 331 c 0x90
 208 330 204 276 207 197 c 0x88
 208 175 208 153 208 149 c 0x90
 208 138 215 117 220 111 c 0
 232 98 272 115 286 149 c 0
 291 161 296 162 304 152 c 0
 313 142 342 126 349 125 c 0
 373 122 329 71 329 71 c 0
 324 65 316 56 311 49 c 0
 291 23 285 15 240 7 c 0
 236 6 224 4 213 1 c 0
 144 -15 135 23 132 70 c 0
 130 106 125 127 122 197 c 0x88
 121 224 113 322 113 323 c 0x90
 113 338 113 337 86 344 c 0
 64 349 42 351 25 347 c 0
 7 343 7 344 7 376 c 0
 7 395 6 404 4 409 c 0
 -2 421 -1 421 58 421 c 0
 87 421 111 421 112 422 c 0
 114 424 111 531 117 538 c 0x60
EndSplineSet
Validated: 33
EndChar

StartChar: u
Encoding: 117 117 49
Width: 378
VWidth: 860
Flags: W
VStem: 12 100<201.154 418.621> 256 99<144.881 221.949> 271 91<241.83 424.023>
LayerCount: 2
Back
Fore
SplineSet
344 428 m 0xa0
 365 437 367 434 362 402 c 0xa0
 359 383 359 383 359 235 c 0
 359 215 356 245 355 105 c 0xc0
 354 -14 355 -16 342 -5 c 0
 330 5 291 6 289 5 c 0
 271 -2 276 38 271 38 c 0xa0
 270 38 265 33 261 26 c 0
 238 -12 171 0 138 18 c 0
 97 40 83 53 67 88 c 0
 50 125 43 149 36 191 c 0
 33 212 28 236 26 244 c 0
 18 276 8 392 12 403 c 0
 14 407 15 413 14 415 c 0
 13 418 15 418 21 418 c 0
 73 420 109 431 113 425 c 0
 114 423 115 420 114 418 c 0
 111 410 109 297 112 279 c 0
 114 269 115 254 116 245 c 0
 118 213 126 179 134 167 c 0
 151 140 173 125 198 122 c 0
 211 121 212 120 224 132 c 0
 245 153 256 201 256 209 c 0xc0
 256 215 258 221 259 222 c 0
 270 229 279 383 271 413 c 0
 265 433 279 430 285 428 c 0
 298 423 332 423 344 428 c 0xa0
EndSplineSet
Validated: 33
EndChar

StartChar: v
Encoding: 118 118 50
Width: 467
VWidth: 860
Flags: W
VStem: 78 141<150.451 266.05> 336 91<281.498 399.714>
LayerCount: 2
Back
Fore
SplineSet
445 390 m 0
 445 386 427 349 427 341 c 0
 427 329 386 238 385 229 c 0
 384 218 382 221 377 208 c 0
 351 138 333 91 333 89 c 0
 333 89 328 78 323 63 c 0
 301 -4 306 0 269 4 c 0
 204 11 170 0 169 0 c 0
 165 0 153 12 156 13 c 0
 158 14 150 32 143 45 c 0
 142 46 96 153 94 170 c 0
 92 194 78 211 78 221 c 0
 78 236 71 230 57 294 c 0
 44 353 35 376 21 398 c 0
 16 405 10 426 10 426 c 1
 10 426 55 427 76 424 c 0
 122 418 122 418 124 416 c 0
 125 415 128 414 130 414 c 0
 137 414 141 412 141 409 c 0
 141 403 219 215 219 213 c 0
 219 205 218 205 241 145 c 0
 243 139 250 136 250 141 c 0
 250 144 258 161 261 165 c 0
 263 167 331 278 336 390 c 0
 337 416 339 420 350 420 c 0
 424 420 425 420 449 415 c 0
 461 413 445 397 445 390 c 0
EndSplineSet
Validated: 33
EndChar

StartChar: x
Encoding: 120 120 51
Width: 442
VWidth: 860
Flags: W
LayerCount: 2
Back
Fore
SplineSet
130 380 m 0
 130 375 144 357 144 353 c 0
 144 345 207 256 210 258 c 0
 211 259 275 383 289 405 c 0
 293 411 296 417 296 418 c 0
 296 418 302 435 316 432 c 0
 327 430 418 432 425 430 c 0
 439 426 415 410 403 385 c 0
 397 373 386 360 375 339 c 0
 352 294 358 315 341 285 c 0
 325 256 302 225 302 217 c 0
 302 215 301 212 300 212 c 0
 292 209 311 191 316 179 c 0
 324 160 364 111 364 105 c 0
 364 103 379 84 381 77 c 0
 386 62 423 31 423 25 c 0
 423 19 434 21 426 8 c 0
 423 4 421 3 415 3 c 0
 400 3 392 -5 379 -1 c 0
 362 4 308 -6 302 10 c 0
 300 15 285 20 283 29 c 0
 281 38 269 45 262 60 c 0
 262 60 264 55 241 95 c 0
 214 143 214 143 213 143 c 0
 205 143 157 4 152 -1 c 0
 144 -9 138 3 110 -0 c 0
 90 -2 66 0 57 -3 c 0
 37 -9 46 12 46 12 c 0
 50 14 94 100 122 136 c 0
 127 142 134 153 140 162 c 2
 150 178 l 1
 142 196 l 2
 123 235 73 296 72 297 c 0
 71 298 9 397 4 401 c 0
 -1 405 -1 407 1 412 c 0
 3 418 4 417 12 416 c 0
 27 414 90 415 99 417 c 0
 110 420 118 418 118 412 c 0
 118 399 130 382 130 380 c 0
EndSplineSet
Validated: 33
EndChar

StartChar: z
Encoding: 122 122 52
Width: 389
VWidth: 860
Flags: W
HStem: 18 93<207.936 364.916> 313 109<17 258.919>
LayerCount: 2
Back
Fore
SplineSet
366 422 m 1
 361 315 361 315 361 288 c 4
 361 287 346 280 322 249 c 0
 311 235 302 221 302 220 c 0
 302 219 246 161 241 152 c 0
 229 129 206 107 207 103 c 0
 209 96 327 106 345 111 c 0
 352 113 365 123 366 72 c 0
 367 18 367 18 350 18 c 0
 348 18 212 14 181 11 c 0
 152 8 99 6 72 4 c 0
 47 2 44 3 47 17 c 0
 48 22 49 39 49 54 c 2
 49 83 l 1
 71 105 l 2
 72 106 153 190 186 233 c 0
 202 255 209 254 218 265 c 0
 219 266 219 267 251 299 c 0
 264 312 264 312 260 313 c 0
 240 318 22 306 20 308 c 0
 19 309 18 346 5 411 c 0
 4 415 4 417 7 417 c 0
 15 417 226 418 247 420 c 0
 255 421 285 422 314 422 c 2
 366 422 l 1
EndSplineSet
Validated: 33
EndChar

StartChar: colon
Encoding: 58 58 53
Width: 153
Flags: W
HStem: 75.3301 114.131<29.3656 110.626> 326.535 114.131<33.9154 115.176>
LayerCount: 2
Fore
SplineSet
71.53125 204.271484375 m 4
 76.572265625 220.530273438 123.239257812 200.590820312 128.450195312 187.794921875 c 4
 131.553710938 180.171875 130.555664062 135.588867188 127 123 c 4
 120.837890625 101.184570312 93.1748046875 80.642578125 88.78515625 79.40234375 c 4
 86.484375 78.751953125 81.380859375 76.880859375 77.677734375 75.330078125 c 4
 72.283203125 73.0693359375 36.361328125 70.9931640625 20.7568359375 94.490234375 c 4
 4.29296875 119.284179688 25.21875 162.21875 26.6923828125 164.46875 c 4
 30.935546875 170.948242188 54.44140625 189.4609375 58.4248046875 189.4609375 c 4
 61.6181640625 189.4609375 69.8095703125 198.717773438 71.53125 204.271484375 c 4
76.0810546875 455.4765625 m 4
 81.1220703125 471.735351562 127.7890625 451.795898438 133 439 c 4
 136.103515625 431.376953125 135.10546875 386.793945312 131.549804688 374.205078125 c 4
 125.387695312 352.389648438 97.724609375 331.84765625 93.3349609375 330.607421875 c 4
 91.0341796875 329.95703125 85.9306640625 328.0859375 82.2275390625 326.53515625 c 4
 76.8330078125 324.274414062 40.9111328125 322.198242188 25.306640625 345.6953125 c 4
 8.8427734375 370.489257812 29.7685546875 413.423828125 31.2421875 415.673828125 c 4
 35.4853515625 422.153320312 58.9912109375 440.666015625 62.974609375 440.666015625 c 4
 66.16796875 440.666015625 74.359375 449.922851562 76.0810546875 455.4765625 c 4
EndSplineSet
Validated: 33
EndChar

StartChar: parenright
Encoding: 41 41 54
Width: 174
VWidth: 1219
Flags: HWO
VStem: 67.3652 57.8906<405.313 668.107> 77.2471 47.9375<182.801 554.643 556.676 652.82>
LayerCount: 2
Back
Fore
SplineSet
52.9423828125 677.298828125 m 0x80
 76.6591796875 683.291992188 84.6591796875 683.291992188 86.6669921875 676.6015625 c 0
 86.806640625 676.134765625 107.774414062 657.313476562 111.700195312 630.590820312 c 0
 114.297851562 612.93359375 118.3984375 606.481445312 119.741210938 590.157226562 c 0
 121.2109375 572.325195312 124.357421875 567.732421875 123.255859375 556.137695312 c 0x80
 122.650390625 549.762695312 137.041992188 354.682617188 129.0390625 292.483398438 c 0
 128.822265625 290.80078125 118.836914062 157.724609375 110.918945312 123.778320312 c 0
 100.28515625 78.1943359375 93.4921875 49.0771484375 77.3173828125 13.7021484375 c 0
 69.927734375 -2.4658203125 42.2685546875 -1.96324392954 42.2685546875 5.0576171875 c 0
 42.2685546875 6.5087890625 39.201171875 6.939453125 28.8837890625 6.939453125 c 0
 19.6542820186 6.939453125 6.13665929334 6.939453125 17.171875 20.8818359375 c 0
 36.435897535 45.2146469521 70.5258673659 208.666948693 73.666015625 290.392578125 c 0
 74.6389189841 315.680364379 77.4702898883 317.54158485 77.2470703125 334.729492188 c 0x40
 76.5502632519 388.48632321 82.5996656738 409.432167481 79.7744140625 418.733398438 c 0
 76.4969660329 429.52339091 82.4943244379 428.057044001 80.8203125 452.265625 c 0
 78.1368349411 491.024647174 78.1368349411 491.024647174 77.333984375 495.069335938 c 0
 72.467531101 519.609294942 72.7490234375 486.834960938 64.982421875 545.541015625 c 0
 63.30859375 558.205078125 64.5546875 576.63671875 60.154296875 584.999023438 c 0
 58.4384765625 588.259765625 56.365234375 593.0859375 56.365234375 597.546875 c 0
 56.365234375 601.1640625 28.314453125 672.463867188 32.5859375 673.022460938 c 0
 36.478515625 673.53125 45.6923828125 675.466796875 52.9423828125 677.298828125 c 0x80
EndSplineSet
EndChar

StartChar: comma
Encoding: 44 44 55
Width: 152
VWidth: 1219
Flags: W
HStem: -61.0518 60.3486<-17.5274 26.5057> -61.0518 34.2656<-47.7186 1.66398>
VStem: 30.5322 91.8711<20.1879 100.804>
LayerCount: 2
Back
Fore
SplineSet
27.6337890625 20.0166015625 m 4xa0
 27.6337890625 23.737539898 23.287109375 23.1196529935 23.287109375 26.9716796875 c 4
 23.287109375 28.4208984375 22.73828125 29.724609375 22.1279296875 29.724609375 c 4
 16.7237251492 29.724609375 14.5317468271 56.6718254374 25.974609375 73.7724609375 c 4
 28.49609375 77.5400390625 30.5322265625 81.2294921875 30.5322265625 82.03125 c 4
 30.5322265625 85.1248286351 44.9458044531 101.45964716 54.6572265625 105.069335938 c 4
 66.5503851603 109.491449702 74.6670292159 113.760735494 79.7958984375 115.249023438 c 4
 88.8950912971 117.891387918 116.994743425 105.308149618 118.54296875 100.8671875 c 4
 119.001953125 99.5537109375 120.673828125 96.666015625 122.403320312 94.2021484375 c 4
 123.649136291 92.4274016553 140.690733069 66.2817617282 106.647460938 8.859375 c 4
 76.5854958299 -41.8473257144 15.1802697083 -54.3926815665 -2.0693359375 -56.4873046875 c 4
 -13.2265625 -57.841796875 -25.6142578125 -59.896484375 -29.599609375 -61.0517578125 c 4
 -46.0675071487 -65.8278160276 -93.09857765 -59.7175400938 -51.3330078125 -40.4677734375 c 4
 -42.6849356004 -36.4818634299 -34.6395341976 -29.4110283333 -26.556640625 -26.7861328125 c 4x60
 -4.073062384 -19.4864384327 10.9647490937 -0.703125 13.4345703125 -0.703125 c 4
 15.419921875 -0.703125 27.6337890625 17.119140625 27.6337890625 20.0166015625 c 4xa0
EndSplineSet
Validated: 33
EndChar

StartChar: semicolon
Encoding: 59 59 56
Width: 153
Flags: W
HStem: 326.535 114.131<33.9154 115.176>
VStem: 24.9082 103.092<96.0255 196.007>
LayerCount: 2
Fore
SplineSet
55.92578125 90.751953125 m 0
 53.875 93.8564453125 50.5888671875 90.9453125 48.46484375 94.158203125 c 0
 47.6669921875 95.3681640625 46.490234375 96.15234375 45.98046875 95.81640625 c 0
 41.4716796875 92.837890625 24.7880859375 114.112304688 24.908203125 134.6875 c 0
 24.935546875 139.220703125 24.599609375 143.421875 24.158203125 144.090820312 c 0
 22.4521484375 146.671875 25.4736328125 168.247070312 31.5859375 176.610351562 c 0
 39.072265625 186.857421875 43.4892578125 194.893554688 46.9482421875 198.962890625 c 0
 53.083984375 206.18359375 83.46484375 211.174804688 87.2041015625 208.323242188 c 0
 88.3115234375 207.479492188 91.298828125 205.9921875 94.099609375 204.889648438 c 0
 96.1171875 204.096679688 124.748046875 191.676757812 128 125 c 0
 130.87109375 66.1220703125 86.5546875 21.8056640625 73.3173828125 10.5478515625 c 0
 64.7548828125 3.267578125 55.5517578125 -5.275390625 52.86328125 -8.4365234375 c 0
 41.7578125 -21.5 -0.8505859375 -42.328125 23.3837890625 -3.2431640625 c 0
 28.40234375 4.849609375 31.216796875 15.18359375 36.5126953125 21.830078125 c 0
 51.2470703125 40.314453125 53.4404296875 64.2763671875 55.5009765625 65.63671875 c 0
 57.1572265625 66.732421875 57.5234375 88.3349609375 55.92578125 90.751953125 c 0
76.0810546875 455.4765625 m 0
 81.1220703125 471.735351562 127.7890625 451.795898438 133 439 c 0
 136.103515625 431.376953125 135.10546875 386.793945312 131.549804688 374.205078125 c 0
 125.387695312 352.389648438 97.724609375 331.84765625 93.3349609375 330.607421875 c 0
 91.0341796875 329.95703125 85.9306640625 328.0859375 82.2275390625 326.53515625 c 0
 76.8330078125 324.274414062 40.9111328125 322.198242188 25.306640625 345.6953125 c 0
 8.8427734375 370.489257812 29.7685546875 413.423828125 31.2421875 415.673828125 c 0
 35.4853515625 422.153320312 58.9912109375 440.666015625 62.974609375 440.666015625 c 0
 66.16796875 440.666015625 74.359375 449.922851562 76.0810546875 455.4765625 c 0
EndSplineSet
Validated: 33
EndChar

StartChar: question
Encoding: 63 63 57
Width: 358
VWidth: 1219
Flags: W
HStem: 303.957 35.3701<153.762 230.498> 589.99 60.0439<98.6795 129.364> 600.216 74.2002<129.445 235.082>
VStem: 62.5693 7.68945<519.252 523.856> 92.5566 83.6201<18.1984 83.0742> 124.082 67.5098<164.335 283.478> 259.409 79.1182<391.877 575.761>
LayerCount: 2
Back
Fore
SplineSet
123.1640625 99.736328125 m 0x9a
 119.761338471 105.218673462 165.793194029 126.42458592 176.176757812 76.515625 c 0
 176.307524081 75.8875304559 180.323128477 19.4956271409 141.920898438 13.9404296875 c 0
 137.762695312 13.3388671875 130.38671875 11.24609375 125.465820312 9.2705078125 c 0
 113.470703125 4.45703125 109.727539062 4.7099609375 103.475585938 10.75390625 c 0
 94.0224609375 19.8916015625 92.556640625 24.3837890625 92.556640625 44.2216796875 c 0
 92.556640625 52.9072195169 92.556640625 79.234160606 114.85546875 83.7841796875 c 0
 123.832580461 85.6172342762 123.259004685 99.5835656998 123.1640625 99.736328125 c 0x9a
62.5693359375 520.404296875 m 0
 62.5693359375 520.852960399 52.2744228782 533.508868183 19.5107421875 533.01171875 c 0
 3.71466876707 532.772354207 -2.46473702553 532.678715072 4.2099609375 546.624023438 c 0
 9.19791211172 557.042733696 8.16086604626 564.547446991 11.5146484375 569.690429688 c 0
 15.4796280611 575.774244272 38.4441253427 617.601916916 49.1904296875 627.563476562 c 0
 73.3565133804 649.968714961 73.3565133804 649.968714961 78.2548828125 650.034179688 c 0xd6
 88.8424858083 650.175318776 107.661397405 665.29550151 120.237304688 667.495117188 c 0
 128.742936242 668.985567059 147.290630848 679.373701822 148.98046875 674.416015625 c 0
 149.431640625 673.090820312 150.455078125 673.00390625 152.608398438 674.108398438 c 0
 156.929266274 676.323834522 196.545041223 676.799483242 203.279296875 678.994140625 c 0
 213.8515625 682.4375 232.651367188 677.841796875 260.947265625 664.896484375 c 0
 261.748063053 664.530089662 304.978457687 638.685386382 320.459960938 599.985351562 c 0
 331.686523438 571.918945312 331.686523438 571.918945312 331.686523438 568.4609375 c 0
 331.686523438 561.210627707 334.887405589 563.866631835 334.9921875 533.16796875 c 0
 335.128184705 493.980518667 339.983234046 507.324534669 338.52734375 467.734375 c 0
 337.065152402 427.92382411 336.093699944 401.474442111 297.8125 349.323242188 c 0
 290.607421875 339.508789062 286.012695312 335.626953125 275.094726562 330.130859375 c 0
 255.977231158 320.505718307 240.050432145 303.95703125 230.498046875 303.95703125 c 0
 225.977775706 303.95703125 221.142136052 297.063397142 212.352539062 295.439453125 c 0
 200.97265625 293.337890625 193.758789062 289.346679688 192.723632812 284.581054688 c 0
 187.686573552 261.381117398 194.086036254 216.237500089 191.591796875 195.541992188 c 0
 187.993961928 165.676389033 199.532353708 181.594960311 191.822265625 169.091796875 c 0
 189.072265625 164.631835938 189.083984375 164.370117188 192.163085938 161.249023438 c 0
 195.859375 157.5 194.821289062 153.251953125 190.208007812 153.251953125 c 0
 173.447890851 153.251953125 148.281557482 173.488767817 120.237304688 158.865234375 c 0
 103.454427422 150.11441643 103.454427422 150.11441643 102.014648438 150.637695312 c 0
 96.0939386315 152.791700585 103.143941817 158.770244068 105.782226562 189.775390625 c 0
 106.69019781 200.44483462 113.435225737 243.792510324 117.084960938 292.423828125 c 0
 118.943054717 317.213518308 124.08203125 315.660994083 124.08203125 323.026367188 c 0
 124.08203125 333.740118212 153.423104025 339.327148438 153.76171875 339.327148438 c 0
 166.994348402 339.327148438 224.654866761 360.876421508 251.68359375 413.603515625 c 0
 255.940429688 421.907226562 259.409179688 429.501953125 259.409179688 430.51953125 c 0
 259.409179688 431.132794792 276.868571308 483.108734469 272.21875 490.493164062 c 0
 269.478827394 494.845099423 272.216868693 525.433954159 258.709960938 545.393554688 c 0
 225.499590768 594.473594988 222.809874214 598.44860027 186.748046875 600.215820312 c 0xb6
 169.0625 601.083984375 164.848632812 600.799804688 154.837890625 598.063476562 c 0
 137.983523851 593.455676476 130.513283837 593.218737964 129.387695312 591.374023438 c 0
 128.896484375 590.5703125 127.541992188 589.990234375 126.158203125 589.990234375 c 0xd6
 125.508150749 589.990234375 91.6308811764 566.881628073 80.3623046875 543.85546875 c 0
 70.2587890625 523.207068346 70.2587890625 523.207068346 70.2587890625 521.403320312 c 0
 70.2587890625 520.112304688 68.720703125 519.250976562 66.4140625 519.250976562 c 0
 64.2607421875 519.250976562 62.5693359375 519.7578125 62.5693359375 520.404296875 c 0
EndSplineSet
Validated: 33
EndChar

StartChar: exclam
Encoding: 33 33 58
Width: 189
VWidth: 1219
Flags: W
HStem: 6.58984 97.8545<29.9892 70.4107 71.2575 82.2803>
VStem: 34.5654 87.0654<175.035 431.987> 65.4648 74.5342<321.346 663.414>
LayerCount: 2
Back
Fore
SplineSet
48.83203125 6.58984375 m 0x80
 43.1975638032 6.58984375 5.51888555116 29.0328228712 27.74609375 77.57421875 c 0
 34.8935512501 93.1857152231 38.1305408424 100.255956858 63.029296875 104.444335938 c 0
 82.3016851519 107.687390374 71.4950875686 113.327690434 82.7939453125 118.0078125 c 0
 120.458257773 133.620142905 128.800646123 19.6953804202 85.4384765625 7.3056640625 c 0
 75.0550756659 4.33933690747 78.8399814149 3.2352936434 70.8935546875 1.0224609375 c 0
 60.5141812049 -1.86905534669 55.2545343579 6.58984375 48.83203125 6.58984375 c 0x80
79.3134765625 661.874023438 m 0
 79.3134765625 662.588299076 132.732244669 689.982051495 149.602539062 674.576171875 c 0
 151.12109375 673.190429688 154.125976562 671.370117188 156.213867188 670.573242188 c 0
 159.48046875 669.326171875 160.041015625 668.346679688 160.041015625 663.892578125 c 0
 160.041015625 653.543899138 155.015500669 652.685062203 151.01953125 591.16796875 c 0
 149.111991666 561.776558923 141.230445811 530.354152188 139.999023438 463.813476562 c 0xa0
 139.95749599 461.575210389 125.833752819 241.669965821 125.4609375 240.420898438 c 0
 123.48157038 233.793528748 119.359572796 214.644192461 121.630859375 175.838867188 c 0
 122.638671875 158.580078125 114.522460938 147.947265625 111.537109375 162.616210938 c 0
 110.282108145 168.784469858 78.0029289938 181.069133853 54.9560546875 170.321289062 c 0
 35.2106407526 161.113799571 39.4796103022 152.228379255 33.6611328125 155.352539062 c 0
 24.9677384351 160.022732583 38.395931117 164.118497673 34.5654296875 172.776367188 c 0xc0
 31.0643406592 180.692734214 36.7772884278 169.454647977 40.3671875 251.555664062 c 0
 43.6560040819 326.744569747 63.5216879742 491.649041532 61.4287109375 527.211914062 c 0
 61.1146662441 532.558658038 65.7624049935 555.45441525 65.46484375 565.48828125 c 0xa0
 65.1971467799 574.542337248 70.1841724405 586.894638288 69.744140625 640.439453125 c 0
 69.7061554005 645.041363068 74.5321814179 652.409179688 70.2666015625 652.409179688 c 0
 69.1533203125 652.409179688 68.1787109375 652.994140625 68.1787109375 653.662109375 c 0
 68.1787109375 655.205078125 75.6953125 660.760742188 77.783203125 660.760742188 c 0
 78.6181640625 660.760742188 79.3134765625 661.266601562 79.3134765625 661.874023438 c 0
EndSplineSet
Validated: 33
EndChar

StartChar: quotesingle
Encoding: 39 39 59
Width: 122
VWidth: 1219
Flags: W
VStem: 10.9082 103.092<437.025 537.007>
LayerCount: 2
Fore
SplineSet
41.92578125 431.751953125 m 4
 39.875 434.856445312 36.5888671875 431.9453125 34.46484375 435.158203125 c 4
 33.6669921875 436.368164062 32.490234375 437.15234375 31.98046875 436.81640625 c 4
 27.4716796875 433.837890625 10.7880859375 455.112304688 10.908203125 475.6875 c 4
 10.935546875 480.220703125 10.599609375 484.421875 10.158203125 485.090820312 c 4
 8.4521484375 487.671875 11.4736328125 509.247070312 17.5859375 517.610351562 c 4
 25.072265625 527.857421875 29.4892578125 535.893554688 32.9482421875 539.962890625 c 4
 39.083984375 547.18359375 69.46484375 552.174804688 73.2041015625 549.323242188 c 4
 74.3115234375 548.479492188 77.298828125 546.9921875 80.099609375 545.889648438 c 4
 82.1171875 545.096679688 110.748046875 532.676757812 114 466 c 4
 116.87109375 407.122070312 72.5546875 362.805664062 59.3173828125 351.547851562 c 4
 50.7548828125 344.267578125 41.5517578125 335.724609375 38.86328125 332.563476562 c 4
 27.7578125 319.5 -14.8505859375 298.671875 9.3837890625 337.756835938 c 4
 14.40234375 345.849609375 17.216796875 356.18359375 22.5126953125 362.830078125 c 4
 37.2470703125 381.314453125 39.4404296875 405.276367188 41.5009765625 406.63671875 c 4
 43.1572265625 407.732421875 43.5234375 429.334960938 41.92578125 431.751953125 c 4
EndSplineSet
Validated: 33
EndChar

StartChar: period
Encoding: 46 46 60
Width: 153
Flags: W
HStem: -5.92188 114.131<32.5336 113.794>
LayerCount: 2
Back
Fore
SplineSet
74.69921875 123.01953125 m 4
 79.7405765173 139.278489072 126.407543713 119.338409314 131.618164062 106.54296875 c 4
 134.721679688 98.919921875 133.723632812 54.3369140625 130.16796875 41.748046875 c 4
 124.006277698 19.9323921172 96.3425587317 -0.609545136904 91.953125 -1.849609375 c 4
 89.65234375 -2.5 84.548828125 -4.37109375 80.845703125 -5.921875 c 4
 75.4512405085 -8.18254063854 39.5294478153 -10.2590656647 23.9248046875 13.23828125 c 4
 7.46117724771 38.0320084707 28.3866369762 80.9663750003 29.8603515625 83.216796875 c 4
 34.103515625 89.6962890625 57.609375 108.208984375 61.5927734375 108.208984375 c 4
 64.7861328125 108.208984375 72.9775390625 117.465820312 74.69921875 123.01953125 c 4
EndSplineSet
Validated: 33
EndChar

StartChar: parenleft
Encoding: 40 40 61
Width: 210
Flags: W
VStem: 13.3955 71.9072<161.133 433.869> 53.209 38.6592<467.159 527.677> 62.7207 66.583<35.7898 101.685>
LayerCount: 2
Back
Fore
SplineSet
62.720703125 85.3310546875 m 0x20
 62.720703125 86.0185066151 39.62109375 144.253836439 39.62109375 150.079101562 c 0
 39.62109375 152.844388846 31.0203983626 165.980513875 28.0576171875 191.7265625 c 0
 21.0427957393 252.729038075 21.0427957393 252.729038075 19.13671875 260.34765625 c 0
 18.0234435227 264.800757159 12.620837582 352.040757717 13.3955078125 352.543945312 c 0x80
 14.5863630972 353.318233534 21.3013785647 426.809863611 41.6201171875 491.755859375 c 0
 46.5810886898 507.612805257 47.6219393033 519.8828125 47.91015625 519.8828125 c 0
 49.2626953125 519.8828125 53.208984375 529.395507812 53.208984375 532.65625 c 0
 53.208984375 547.525476193 103.871961009 639.185896717 107.833984375 639.407226562 c 0
 108.341749213 639.435593313 135.897385288 675.811058003 142.755859375 676.376953125 c 0
 188.652037535 680.164137761 146.162947907 682.694594768 180.802734375 680.79296875 c 0
 199.146484375 679.787109375 198.64453125 679.978515625 197.2421875 674.517578125 c 0
 188.78817625 641.618441575 162.211337133 639.390374643 145.439453125 603.72265625 c 0
 136.826649938 585.406246306 141.424363034 601.425822138 118.954101562 548.418945312 c 0
 103.829616365 512.746207701 110.650918776 513.133199432 104.532226562 501.674804688 c 0
 104.215231921 501.081788648 92.6773787905 459.915192262 91.8681640625 435.635742188 c 0x40
 90.5828551344 397.100453988 85.5068827784 412.784402943 85.302734375 336.44140625 c 0x80
 85.0712890625 250.15625 85.810546875 220.734375 88.62109375 204.364257812 c 0
 92.7830580773 180.103942778 98.2702706891 132.108773711 100.8359375 123.786132812 c 0
 104.572543556 111.668551592 110.730558156 86.1224521492 114.288085938 75.5478515625 c 0
 114.455989494 75.0486691635 129.303710938 27.1841915036 129.303710938 25.0673828125 c 0
 129.303710938 24.8126860958 138.495400463 6.24355600157 130.390625 1.25 c 0
 130.11016844 1.07717252597 102.023702821 -3.81847409026 97.7783203125 5.9072265625 c 0
 95.2641020785 11.6761141147 94.301554402 9.519750928 88.5390625 26.6298828125 c 0
 80.5148095779 50.4426268205 62.720703125 80.4738257312 62.720703125 85.3310546875 c 0x20
EndSplineSet
Validated: 33
EndChar

